<svg xmlns="http://www.w3.org/2000/svg" viewBox="0 0 180 120" role="img" aria-label="Bag valve mask">
  <rect width="180" height="120" rx="22" fill="#f8fdff"/>
  <path d="M31 49h37M113 49h18" stroke="#38bdf8" stroke-width="7" stroke-linecap="round"/>
  <path d="M55 52c0-24 69-24 69 0 0 24-13 38-34 38S55 76 55 52Z" fill="#cffafe" fill-opacity=".64" stroke="#0284c7" stroke-width="4"/>
  <rect x="122" y="39" width="17" height="27" rx="6" fill="#e0f2fe" stroke="#0284c7" stroke-width="3"/>
  <path d="M138 52c11-18 38-12 38 11s-29 29-42 10c-3-5 0-14 4-21Z" fill="#bbf7d0" stroke="#16a34a" stroke-width="4"/>
  <path d="M146 55c7-5 17-2 18 8" fill="none" stroke="#dcfce7" stroke-width="4" stroke-linecap="round"/>
  <text x="77" y="18" text-anchor="middle" font-family="Arial, sans-serif" font-size="12" font-weight="700" fill="#166534">BVM</text>
</svg>
