<svg xmlns="http://www.w3.org/2000/svg" viewBox="0 0 180 120" role="img" aria-label="Nasal cannula">
  <defs>
    <linearGradient id="tube" x1="0" x2="1">
      <stop offset="0" stop-color="#dffaff"/>
      <stop offset="0.55" stop-color="#76d7ee"/>
      <stop offset="1" stop-color="#dffaff"/>
    </linearGradient>
    <filter id="shadow" x="-20%" y="-20%" width="140%" height="140%">
      <feDropShadow dx="0" dy="5" stdDeviation="5" flood-color="#075985" flood-opacity=".2"/>
    </filter>
  </defs>
  <rect width="180" height="120" rx="22" fill="#f8fdff"/>
  <path d="M35 46c18 11 33 11 45 4 7-4 13-4 20 0 12 7 27 7 45-4" fill="none" stroke="url(#tube)" stroke-width="7" stroke-linecap="round" filter="url(#shadow)"/>
  <path d="M70 51c-13 14-20 25-20 43M110 51c13 14 20 25 20 43" fill="none" stroke="#8ee3f4" stroke-width="5" stroke-linecap="round"/>
  <path d="M82 44v22M98 44v22" stroke="#0891b2" stroke-width="7" stroke-linecap="round"/>
  <path d="M82 44v22M98 44v22" stroke="#eaffff" stroke-width="3" stroke-linecap="round"/>
  <path d="M50 94c8 8 20 7 29-2M130 94c-8 8-20 7-29-2" fill="none" stroke="#0e7490" stroke-width="2" stroke-linecap="round" opacity=".35"/>
  <text x="90" y="108" text-anchor="middle" font-family="Arial, sans-serif" font-size="12" font-weight="700" fill="#155e75">NASAL CANNULA</text>
</svg>
